# xmcd
#
# Track frame offsets:
#	150
#	12539
#	27750
#	45825
#	60523
#	83147
#	100829
#	117372
#	131416
#	149463
#	165113
#	177624
#
# Disc length: 2691 seconds
#
# Revision: 1
# Processed by: cddbd v1.5.2PL0 Copyright (c) Steve Scherf et al.
# Submitted via: audiograbber 1.83.01
#
DISCID=920a810c
DTITLE=Cedar Hill - Journey of Faith
DYEAR=2002
DGENRE=Bluegrass Gospel
TTITLE0=Pharaoh's Blues
TTITLE1=Climbing Up a Mountain
TTITLE2=When I Get My Reward
TTITLE3=Tears On My Tracks
TTITLE4=Journey of Faith
TTITLE5=Take It To the Valley
TTITLE6=Thirty Three Years
TTITLE7=Cherokee Promise
TTITLE8=Heartaches and Teardrops
TTITLE9=Peter You're the Man
TTITLE10=I'm Only Human
TTITLE11=For Me It's Hello
EXTD=
EXTT0=
EXTT1=
EXTT2=
EXTT3=
EXTT4=
EXTT5=
EXTT6=
EXTT7=
EXTT8=
EXTT9=
EXTT10=
EXTT11=
PLAYORDER=
